# File created by Blade
# Date/Time:  Fri Jan 16 19:14:41 2015
#---------------------------------------------------------
:version 1.10
:name HOM
:units
  mass 1.0
  length 1.000000
  angle deg
:documentation
     Acclaim Skeleton File
:root
   axis xyz
   order TX TY TZ RX RY RZ
   position 0.000000 0.000000 0.000000
   orientation 0 0 0
:bonedata
   begin
      id 1
      name Spine_dum
      direction 0.000000 1.000000 0.000000
      length 7.067664
      axis 0.0 0.0 0.0 xyz
   end
   begin
      id 2
      name LeftUpLeg_dum
      direction 1.000000 0.000000 0.000000
      length 4.013002
      axis 0.0 0.0 0.0 xyz
   end
   begin
      id 3
      name RightUpLeg_dum
      direction -1.000000 0.000000 0.000000
      length 4.013002
      axis 0.0 0.0 0.0 xyz
   end
   begin
      id 4
      name Spine
      direction 0.000000 1.000000 0.000000
      length 0.000000
      axis 0.0 0.0 0.0 xyz
      dof rx ry rz
   end
   begin
      id 5
      name Spine_dum1
      direction 0.000000 1.000000 0.000000
      length 15.039886
      axis 0.0 0.0 0.0 xyz
   end
   begin
      id 6
      name Spine_dum2
      direction 0.000000 1.000000 0.000000
      length 10.530368
      axis 0.0 0.0 0.0 xyz
   end
   begin
      id 7
      name Spine_dum3
      direction 0.000000 1.000000 0.000000
      length 10.530368
      axis 0.0 0.0 0.0 xyz
   end
   begin
      id 8
      name Head
      direction 0.000000 1.000000 0.000000
      length 4.527550
      axis 0.0 0.0 0.0 xyz
      dof rx ry rz
   end
   begin
      id 9
      name LeftShoulder
      direction 1.000000 0.000000 0.000000
      length 7.028855
      axis 0.0 0.0 -90.0 xyz
      dof rx ry rz
   end
   begin
      id 10
      name LeftArm
      direction 1.000000 0.000000 0.000000
      length 10.797705
      axis 0.0 0.0 -90.0 xyz
      dof rx ry rz
   end
   begin
      id 11
      name LeftForeArm
      direction 1.000000 0.000000 0.000000
      length 7.907442
      axis 0.0 0.0 -90.0 xyz
      dof ry rz rx
   end
   begin
      id 12
      name LeftHand
      direction 0.000000 0.000000 0.000000
      length 0.000000
      axis 0.0 0.0 -90.0 xyz
      dof rx ry rz
   end
   begin
      id 13
      name LeftHand_dum1
      direction 0.000000 0.000000 0.000000
      length 0.000000
      axis 0.0 0.0 -90.0 xyz
   end
   begin
      id 14
      name LeftHand_dum2
      direction 1.000000 0.000000 0.000000
      length 3.937000
      axis 0.0 0.0 -90.0 xyz
   end
   begin
      id 15
      name LeftHandThumb1
      direction 0.000000 0.000000 1.000000
      length 3.937000
      axis 0.0 0.0 -90.0 xyz
      dof rx rz ry
   end
   begin
      id 16
      name RightShoulder
      direction -1.000000 0.000000 0.000000
      length 7.028855
      axis 0.0 0.0 90.0 xyz
      dof rx ry rz
   end
   begin
      id 17
      name RightArm
      direction -1.000000 0.000000 0.000000
      length 10.797705
      axis 0.0 0.0 90.0 xyz
      dof rx ry rz
   end
   begin
      id 18
      name RightForeArm
      direction -1.000000 0.000000 0.000000
      length 7.907442
      axis 0.0 0.0 90.0 xyz
      dof ry rz rx
   end
   begin
      id 19
      name RightHand
      direction 0.000000 0.000000 0.000000
      length 0.000000
      axis 0.0 0.0 90.0 xyz
      dof rx ry rz
   end
   begin
      id 20
      name RightHand_dum1
      direction 0.000000 0.000000 0.000000
      length 0.000000
      axis 0.0 0.0 90.0 xyz
   end
   begin
      id 21
      name RightHand_dum2
      direction -1.000000 0.000000 0.000000
      length 3.937000
      axis 0.0 0.0 90.0 xyz
   end
   begin
      id 22
      name RightHandThumb1
      direction 0.000000 0.000000 1.000000
      length 3.937000
      axis 0.0 0.0 90.0 xyz
      dof rx rz ry
   end
   begin
      id 23
      name LeftUpLeg
      direction 0.000000 -1.000000 0.000000
      length 16.899758
      axis 0.0 0.0 0.0 xyz
      dof rx ry rz
   end
   begin
      id 24
      name LeftLeg
      direction 0.000000 -1.000000 0.000000
      length 17.389183
      axis 0.0 0.0 0.0 xyz
      dof rx ry rz
   end
   begin
      id 25
      name LeftFoot
      direction 0.000000 -0.258819 0.965926
      length 4.924528
      axis 15.0 0.0 0.0 xyz
      dof rx ry rz
   end
   begin
      id 26
      name LeftToeBase
      direction 0.000000 0.000000 1.000000
      length 2.952750
      axis 0.0 0.0 0.0 xyz
      dof rx ry rz
   end
   begin
      id 27
      name RightUpLeg
      direction 0.000000 -1.000000 0.000000
      length 16.899758
      axis 0.0 0.0 0.0 xyz
      dof rx ry rz
   end
   begin
      id 28
      name RightLeg
      direction 0.000000 -1.000000 0.000000
      length 17.389183
      axis 0.0 0.0 0.0 xyz
      dof rx ry rz
   end
   begin
      id 29
      name RightFoot
      direction 0.000000 -0.258819 0.965926
      length 4.924528
      axis 15.0 0.0 0.0 xyz
      dof rx ry rz
   end
   begin
      id 30
      name RightToeBase
      direction 0.000000 0.000000 1.000000
      length 2.952750
      axis 0.0 0.0 0.0 xyz
      dof rx ry rz
   end
:hierarchy
   begin
      root Spine_dum LeftUpLeg_dum RightUpLeg_dum
      Spine_dum Spine
      LeftUpLeg_dum LeftUpLeg
      RightUpLeg_dum RightUpLeg
      Spine Spine_dum1 Spine_dum2 Spine_dum3
      Spine_dum1 Head
      Spine_dum2 LeftShoulder
      Spine_dum3 RightShoulder
      LeftShoulder LeftArm
      LeftArm LeftForeArm
      LeftForeArm LeftHand
      LeftHand LeftHand_dum1 LeftHand_dum2
      LeftHand_dum1 LeftHandThumb1
      RightShoulder RightArm
      RightArm RightForeArm
      RightForeArm RightHand
      RightHand RightHand_dum1 RightHand_dum2
      RightHand_dum1 RightHandThumb1
      LeftUpLeg LeftLeg
      LeftLeg LeftFoot
      LeftFoot LeftToeBase
      RightUpLeg RightLeg
      RightLeg RightFoot
      RightFoot RightToeBase
   end

# File created by Blade
# Date/Time:  Fri Jan 16 19:14:28 2015
# Frame Rate: 120.000 fps
#------------------------------------------------------
:FULLY-SPECIFIED
:DEGREES
156
root 19.394589 35.708497 -22.505271 -170.344918 -2.015334 -178.674438
Spine -23.594865 -0.384846 0.401196
Head 16.656488 -1.790519 -1.080759
LeftShoulder -10.677935 -58.532562 47.601748
LeftArm 45.148018 -16.602869 3.186914
LeftForeArm 12.272852 0.000000 8.941716
LeftHand -8.334213 -0.000000 3.972138
LeftHandThumb1 -26.253704 0.000000 33.147579
RightShoulder -7.226927 16.147856 -42.611711
RightArm 35.868407 39.073315 -13.478473
RightForeArm -57.800913 -0.000000 17.975822
RightHand -5.333897 -0.000000 5.369718
RightHandThumb1 -24.326973 -0.000000 -32.862282
LeftUpLeg -0.133904 7.125036 1.398599
LeftLeg -6.467914 -0.000000 0.000000
LeftFoot -20.718294 27.820142 -16.398505
LeftToeBase 23.949309 -0.000000 -0.000000
RightUpLeg -1.238686 -8.802444 1.392086
RightLeg -3.588600 -0.000000 0.000000
RightFoot -20.872437 -23.711722 19.439301
RightToeBase 22.595438 -0.000000 -0.000000
157
root 19.397207 35.709051 -22.499372 -170.326040 -1.972277 -178.662884
Spine -23.590462 -0.406918 0.427322
Head 16.742651 -1.447266 -0.976731
LeftShoulder -10.660808 -58.738226 47.723587
LeftArm 45.599813 -17.255536 2.910541
LeftForeArm 11.824599 -0.000000 10.070016
LeftHand -8.009494 -0.000000 4.544389
LeftHandThumb1 -26.253704 0.000000 33.147579
RightShoulder -7.195489 16.301383 -42.805122
RightArm 36.634274 39.710344 -13.327989
RightForeArm -58.234219 -0.000000 18.472427
RightHand -5.613947 -0.000000 5.516323
RightHandThumb1 -24.326973 -0.000000 -32.862282
LeftUpLeg -0.154249 7.163917 1.404109
LeftLeg -6.474225 -0.000000 0.000000
LeftFoot -20.724909 27.833872 -16.401307
LeftToeBase 23.967858 -0.000000 -0.000000
RightUpLeg -1.264930 -8.764525 1.405016
RightLeg -3.601179 -0.000000 0.000000
RightFoot -20.833880 -23.698466 19.403531
RightToeBase 22.576516 -0.000000 -0.000000
158
root 19.398877 35.710111 -22.493722 -170.300307 -1.942584 -178.652759
Spine -23.601466 -0.420483 0.446396
Head 16.870311 -1.299140 -0.952169
LeftShoulder -10.618638 -58.890569 47.779485
LeftArm 46.107286 -17.897324 2.642021
LeftForeArm 11.196856 -0.000000 11.151493
LeftHand -7.906288 0.000000 5.036268
LeftHandThumb1 -26.253704 0.000000 33.147579
RightShoulder -7.177011 16.495593 -42.982064
RightArm 37.405320 40.321901 -13.164996
RightForeArm -58.507753 -0.000000 19.043335
RightHand -5.729857 -0.000000 5.638793
RightHandThumb1 -24.326973 -0.000000 -32.862282
LeftUpLeg -0.173364 7.161307 1.409643
LeftLeg -6.496547 -0.000000 0.000000
LeftFoot -20.717698 27.854233 -16.425033
LeftToeBase 23.954357 -0.000000 -0.000000
RightUpLeg -1.302229 -8.734409 1.415730
RightLeg -3.607641 -0.000000 0.000000
RightFoot -20.828145 -23.711916 19.437205
RightToeBase 22.659979 -0.000000 -0.000000
159
root 19.400991 35.711054 -22.487309 -170.278996 -1.910814 -178.639670
Spine -23.609161 -0.439279 0.466882
Head 16.979390 -1.154572 -0.953792
LeftShoulder -10.549432 -59.008888 47.810237
LeftArm 46.609840 -18.518012 2.416466
LeftForeArm 10.779535 -0.000000 12.128460
LeftHand -7.576603 0.000000 5.584959
LeftHandThumb1 -26.253704 0.000000 33.147579
RightShoulder -7.139164 16.676091 -43.115343
RightArm 38.235871 41.007022 -12.935850
RightForeArm -58.863569 -0.000000 19.584515
RightHand -5.770827 -0.000000 5.562037
RightHandThumb1 -24.326973 -0.000000 -32.862282
LeftUpLeg -0.195495 7.167244 1.419274
LeftLeg -6.505692 -0.000000 0.000000
LeftFoot -20.701919 27.887436 -16.401319
LeftToeBase 23.956226 -0.000000 -0.000000
RightUpLeg -1.334313 -8.738902 1.434312
RightLeg -3.619395 -0.000000 0.000000
RightFoot -20.763574 -23.626519 19.480298
RightToeBase 22.389462 -0.000000 -0.000000
160
root 19.403969 35.712053 -22.480751 -170.252381 -1.861152 -178.628298
Spine -23.624345 -0.432276 0.469525
Head 17.074415 -1.060851 -0.945342
LeftShoulder -10.460874 -59.149681 47.877782
LeftArm 46.975763 -19.160168 2.096218
LeftForeArm 10.089698 -0.000000 13.391586
LeftHand -7.541121 -0.000000 6.021170
LeftHandThumb1 -26.253704 0.000000 33.147579
RightShoulder -7.102572 17.058480 -43.264339
RightArm 39.139037 41.492611 -12.615305
RightForeArm -59.298052 -0.000000 20.102907
RightHand -5.643149 -0.000000 5.234896
RightHandThumb1 -24.326973 -0.000000 -32.862282
LeftUpLeg -0.222127 7.217930 1.421913
LeftLeg -6.517064 -0.000000 0.000000
LeftFoot -20.704340 27.896436 -16.424817
LeftToeBase 23.949383 -0.000000 -0.000000
RightUpLeg -1.378119 -8.706049 1.449487
RightLeg -3.615800 -0.000000 0.000000
RightFoot -20.755092 -23.650946 19.392184
RightToeBase 22.584353 -0.000000 -0.000000
